#define indicator_horizonal_width 32
#define indicator_horizonal_height 5
static char indicator_horizonal_bits[] = {
  0xFE, 0xFF, 0xFF, 0x7F, 0xFF, 0xFF, 0xFF, 0xFF, 0x03, 0x00, 0x00, 0xC0,
  0xFF, 0xFF, 0xFF, 0xFF, 0xFE, 0xFF, 0xFF, 0x7F, };
