#define BT_width 13
#define BT_height 15
static char BT_bits[] = {
  0x80, 0x01, 0xC0, 0x03, 0xC0, 0x0E, 0xC2, 0x1C, 0xCE, 0x0C, 0xDC, 0x07,
  0xF0, 0x03, 0xE0, 0x00, 0xF0, 0x03, 0xDC, 0x07, 0xCE, 0x1C, 0xC2, 0x1C,
  0x80, 0x0F, 0xC0, 0x03, 0xC0, 0x00, };
