#define indicator_vertical_width 6
#define indicator_vertical_height 32
static char indicator_vertical_bits[] = {
  0x0C, 0x1E, 0x1E, 0x12, 0x12, 0x12, 0x12, 0x12, 0x12, 0x12, 0x12, 0x12,
  0x12, 0x12, 0x12, 0x12, 0x12, 0x12, 0x12, 0x12, 0x12, 0x12, 0x12, 0x12,
  0x12, 0x12, 0x12, 0x12, 0x12, 0x1E, 0x1E, 0x0C, };
