#define wifi_width 19
#define wifi_height 15
static char wifi_bits[] = {
  0xC0, 0x1F, 0x00, 0xF8, 0xFF, 0x00, 0xFC, 0xFB, 0x01, 0x1F, 0xE0, 0x03,
  0x0F, 0x00, 0x07, 0xC3, 0x1F, 0x06, 0xE0, 0x7F, 0x00, 0xF0, 0x7E, 0x00,
  0x38, 0xE0, 0x00, 0x10, 0x06, 0x00, 0x80, 0x0F, 0x00, 0x80, 0x0F, 0x00,
  0x80, 0x0F, 0x00, 0x80, 0x0F, 0x00, 0x00, 0x07, 0x00, };
